<svg width="39" height="24" viewBox="0 0 39 24" fill="none" xmlns="http://www.w3.org/2000/svg">
<path d="M12.0914 0.551339C11.9111 0.330802 12.0681 0 12.3532 0H18.7514C18.8509 0 18.9453 0.0437996 19.0096 0.119727L28.8649 11.7703C28.9714 11.8961 28.9714 12.0804 28.8649 12.2062L19.0096 23.8568C18.9453 23.9327 18.8509 23.9765 18.7514 23.9765H12.3532C12.0681 23.9765 11.9111 23.6457 12.0914 23.4251L21.2688 12.2019C21.3705 12.0776 21.3705 11.8989 21.2688 11.7746L12.0914 0.551339Z" fill="white"/>
<path fill-rule="evenodd" clip-rule="evenodd" d="M37.8023 0C38.0873 0 38.2444 0.330802 38.0641 0.551339L29.9996 10.4136L26.2891 5.86121L31.1459 0.119727C31.2102 0.0437996 31.3046 0 31.4041 0H37.8023ZM26.1993 18.0091L31.1459 23.8568C31.2102 23.9327 31.3046 23.9765 31.4041 23.9765H37.8023C38.0873 23.9765 38.2444 23.6457 38.0641 23.4251L29.9523 13.5051L26.1993 18.0091Z" fill="white"/>
<path fill-rule="evenodd" clip-rule="evenodd" d="M4.03546 0C3.75542 0 3.52841 0.226788 3.52841 0.506545V0.528569L3.5284 0.531936V2.24147H0.487049C0.218059 2.24147 0 2.45953 0 2.72852C0 2.99751 0.218059 3.21557 0.487049 3.21557H3.5284V4.922C3.5284 5.20175 3.75541 5.42854 4.03545 5.42854H12.201C12.6387 5.42854 12.8708 4.91174 12.5797 4.58516L8.66712 0.195097C8.59225 0.11109 8.4922 0.055062 8.38332 0.0343377C8.32544 0.0118874 8.26329 0 8.19981 0H4.03546ZM5.89507 9.64912C5.89507 9.36937 6.12209 9.14258 6.40212 9.14258H15.6307C15.7822 9.14258 15.9258 9.21027 16.0221 9.32711L17.9708 11.691C18.125 11.878 18.125 12.148 17.9708 12.335L16.0221 14.6989C15.9258 14.8157 15.7822 14.8834 15.6307 14.8834H6.40212C6.12209 14.8834 5.89507 14.6566 5.89507 14.3769V12.4988H2.85155C2.58256 12.4988 2.3645 12.2807 2.3645 12.0117C2.3645 11.7427 2.58256 11.5247 2.85155 11.5247H5.89507V9.64912ZM4.03214 23.9989C3.7521 23.9989 3.52509 23.7721 3.52509 23.4923V21.7859H0.487049C0.218059 21.7859 0 21.5678 0 21.2988C0 21.0298 0.218059 20.8118 0.487049 20.8118H3.52509V19.1022C3.52509 18.8225 3.7521 18.5957 4.03214 18.5957H12.0416C12.4772 18.5957 12.7101 19.1083 12.4232 19.4358L8.57808 23.8259C8.4818 23.9358 8.3427 23.9989 8.19649 23.9989H4.03214Z" fill="url(#paint0_linear_1_143)"/>
<defs>
<linearGradient id="paint0_linear_1_143" x1="16.0852" y1="2.73412" x2="-2.83104" y2="17.2111" gradientUnits="userSpaceOnUse">
<stop stop-color="#00F595"/>
<stop offset="1" stop-color="#00D5FB"/>
</linearGradient>
</defs>
</svg>
